<svg version="1.1" xmlns="http://www.w3.org/2000/svg" xmlns:xlink="http://www.w3.org/1999/xlink" viewBox="0 0 226 226"><g fill="none" fill-rule="nonzero" stroke="none" stroke-width="1" stroke-linecap="butt" stroke-linejoin="miter" stroke-miterlimit="10" stroke-dasharray="" stroke-dashoffset="0" font-family="none" font-weight="none" font-size="none" text-anchor="none" style="mix-blend-mode: normal"><path d="M0,226v-226h226v226z" fill="none"></path><g fill="#000000"><path d="M47.08333,28.25c-10.38658,0 -18.83333,8.44675 -18.83333,18.83333v37.66667c0,10.38658 8.44675,18.83333 18.83333,18.83333h37.66667c10.38658,0 18.83333,-8.44675 18.83333,-18.83333v-37.66667c0,-10.38658 -8.44675,-18.83333 -18.83333,-18.83333zM141.25,28.25c-10.38658,0 -18.83333,8.44675 -18.83333,18.83333v37.66667c0,10.38658 8.44675,18.83333 18.83333,18.83333h37.66667c10.38658,0 18.83333,-8.44675 18.83333,-18.83333v-37.66667c0,-10.38658 -8.44675,-18.83333 -18.83333,-18.83333zM47.08333,122.41667c-10.38658,0 -18.83333,8.44675 -18.83333,18.83333v37.66667c0,10.38658 8.44675,18.83333 18.83333,18.83333h37.66667c10.38658,0 18.83333,-8.44675 18.83333,-18.83333v-37.66667c0,-10.38658 -8.44675,-18.83333 -18.83333,-18.83333zM141.25,122.41667c-10.38658,0 -18.83333,8.44675 -18.83333,18.83333v37.66667c0,10.38658 8.44675,18.83333 18.83333,18.83333h37.66667c10.38658,0 18.83333,-8.44675 18.83333,-18.83333v-37.66667c0,-10.38658 -8.44675,-18.83333 -18.83333,-18.83333z"></path></g></g></svg>