<svg version="1.1" xmlns="http://www.w3.org/2000/svg" xmlns:xlink="http://www.w3.org/1999/xlink" viewBox="0 0 226 226"><g fill="none" fill-rule="nonzero" stroke="none" stroke-width="1" stroke-linecap="butt" stroke-linejoin="miter" stroke-miterlimit="10" stroke-dasharray="" stroke-dashoffset="0" font-family="none" font-weight="none" font-size="none" text-anchor="none" style="mix-blend-mode: normal"><path d="M0,226v-226h226v226z" fill="none"></path><g fill="#000000"><path d="M207.16667,56.5v37.66667c0,5.198 -4.21867,9.41667 -9.41667,9.41667h-169.5c-5.198,0 -9.41667,-4.21867 -9.41667,-9.41667v-37.66667c0,-10.35833 8.475,-18.83333 18.83333,-18.83333h150.66667c10.35833,0 18.83333,8.475 18.83333,18.83333zM28.25,122.41667h169.5c5.198,0 9.41667,4.21867 9.41667,9.41667v37.66667c0,10.35833 -8.475,18.83333 -18.83333,18.83333h-150.66667c-10.35833,0 -18.83333,-8.475 -18.83333,-18.83333v-37.66667c0,-5.198 4.21867,-9.41667 9.41667,-9.41667z"></path></g></g></svg>